<?xml version="1.0" encoding="utf-8"?>
<!-- Generator: Adobe Illustrator 21.1.0, SVG Export Plug-In . SVG Version: 6.00 Build 0)  -->
<svg version="1.1" id="Layer_1" xmlns="http://www.w3.org/2000/svg" xmlns:xlink="http://www.w3.org/1999/xlink" x="0px" y="0px"
	 viewBox="0 0 50 50" style="enable-background:new 0 0 50 50;" xml:space="preserve">
<style type="text/css">
	.st0{fill:#FFFFFF;}
	.st1{fill:#8C8C8C;}
	.st2{fill:none;stroke:#8C8C8C;stroke-width:2;stroke-linecap:round;stroke-miterlimit:10;}
</style>
<g>
	<path class="st0" d="M25,49C11.8,49,1,38.2,1,25S11.8,1,25,1s24,10.8,24,24S38.2,49,25,49z"/>
	<path class="st1" d="M25,2c12.7,0,23,10.3,23,23c0,12.7-10.3,23-23,23S2,37.7,2,25C2,12.3,12.3,2,25,2 M25,0C11.2,0,0,11.2,0,25
		c0,13.8,11.2,25,25,25s25-11.2,25-25C50,11.2,38.8,0,25,0L25,0z"/>
</g>
<line class="st2" x1="12.8" y1="25" x2="37.2" y2="25"/>
<line class="st2" x1="12.8" y1="32.8" x2="37.2" y2="32.8"/>
<line class="st2" x1="12.8" y1="17.2" x2="37.2" y2="17.2"/>
</svg>
